<?xml version="1.0" encoding="iso-8859-1"?>
<!-- Uploaded to: SVG Repo, www.svgrepo.com, Generator: SVG Repo Mixer Tools -->
<svg height="800px" width="800px" version="1.1" id="Layer_1" xmlns="http://www.w3.org/2000/svg" xmlns:xlink="http://www.w3.org/1999/xlink" 
	 viewBox="0 0 512 512" xml:space="preserve">
<path style="fill:#5D9BEB;" d="M512,256.006C512,397.402,397.394,512.004,256.004,512C114.606,512.004,0,397.402,0,256.006
	C-0.007,114.61,114.606,0,256.004,0C397.394,0,512,114.614,512,256.006z"/>
<path style="fill:#4988DB;" d="M511.521,271.099c-0.176-0.175-0.349-0.352-0.526-0.526c-0.375-0.379-0.753-0.755-1.131-1.131
	c-0.38-0.383-131.567-131.57-131.951-131.95c-0.377-0.38-0.754-0.757-1.134-1.134C345.931,105.217,303.191,85.877,256,85.877
	c-93.805,0-170.123,76.318-170.123,170.123c0,47.19,19.341,89.931,50.48,120.78c0.379,0.382,0.756,0.759,1.137,1.137
	c0.379,0.382,0.756,0.759,1.137,1.137c0.379,0.382,131.562,131.565,131.943,131.943c0.174,0.176,0.349,0.349,0.524,0.524
	C400.461,503.998,503.996,400.464,511.521,271.099z"/>
<g>
	<path style="fill:#F4F6F9;" d="M341.061,170.939H170.939c-15.637,0-28.354,12.72-28.354,28.354v113.415
		c0,15.637,12.717,28.354,28.354,28.354h170.123c15.637,0,28.354-12.717,28.354-28.354V199.293
		C369.415,183.659,356.699,170.939,341.061,170.939z M355.238,312.707c0,7.815-6.362,14.177-14.177,14.177H170.939
		c-7.815,0-14.177-6.362-14.177-14.177V199.293c0-7.819,6.362-14.177,14.177-14.177h170.123c7.815,0,14.177,6.358,14.177,14.177
		V312.707z"/>
	<path style="fill:#F4F6F9;" d="M329.806,200.65L256,254.325l-73.806-53.676c-3.178-2.313-7.601-1.61-9.899,1.561
		c-2.305,3.167-1.606,7.601,1.565,9.902l77.973,56.707c1.239,0.907,2.706,1.357,4.167,1.357c1.461,0,2.928-0.45,4.167-1.357
		l77.973-56.707c3.17-2.302,3.87-6.735,1.565-9.902C337.407,199.046,332.976,198.34,329.806,200.65z"/>
	<path style="fill:#F4F6F9;" d="M337.732,299.611l-56.707-35.442c-3.323-2.083-7.698-1.066-9.767,2.25
		c-2.077,3.323-1.066,7.698,2.25,9.767l56.707,35.442c1.17,0.734,2.471,1.079,3.751,1.079c2.361,0,4.673-1.177,6.016-3.33
		C342.059,306.055,341.047,301.68,337.732,299.611z"/>
	<path style="fill:#F4F6F9;" d="M230.976,264.169l-56.707,35.442c-3.316,2.069-4.326,6.445-2.25,9.767
		c1.343,2.153,3.655,3.33,6.016,3.33c1.281,0,2.582-0.346,3.751-1.079l56.707-35.442c3.316-2.069,4.326-6.445,2.25-9.767
		C238.673,263.102,234.299,262.084,230.976,264.169z"/>
	<path style="fill:#F4F6F9;" d="M256,85.877c-93.805,0-170.123,76.319-170.123,170.123S162.195,426.123,256,426.123
		S426.123,349.805,426.123,256S349.805,85.877,256,85.877z M256,411.947c-85.989,0-155.947-69.957-155.947-155.947
		S170.011,100.053,256,100.053S411.947,170.011,411.947,256S341.989,411.947,256,411.947z"/>
</g>
</svg>