<?xml version="1.0" encoding="UTF-8" standalone="no"?>
<!-- Creator: CorelDRAW -->

<svg
   xmlns:dc="http://purl.org/dc/elements/1.1/"
   xmlns:cc="http://creativecommons.org/ns#"
   xmlns:rdf="http://www.w3.org/1999/02/22-rdf-syntax-ns#"
   xmlns:svg="http://www.w3.org/2000/svg"
   xmlns="http://www.w3.org/2000/svg"
   xmlns:sodipodi="http://sodipodi.sourceforge.net/DTD/sodipodi-0.dtd"
   xmlns:inkscape="http://www.inkscape.org/namespaces/inkscape"
   xml:space="preserve"
   width="282.22223mm"
   height="282.22223mm"
   style="clip-rule:evenodd;fill-rule:evenodd;image-rendering:optimizeQuality;shape-rendering:geometricPrecision;text-rendering:geometricPrecision"
   viewBox="0 0 282.22223 282.22223"
   id="svg2"
   version="1.1"
   inkscape:version="0.91 r13725"
   sodipodi:docname="Coca-Cola_1987.svg"><metadata
     id="metadata50"><rdf:RDF><cc:Work
         rdf:about=""><dc:format>image/svg+xml</dc:format><dc:type
           rdf:resource="http://purl.org/dc/dcmitype/StillImage" /><dc:title></dc:title></cc:Work></rdf:RDF></metadata><sodipodi:namedview
     pagecolor="#ffffff"
     bordercolor="#666666"
     borderopacity="1"
     objecttolerance="10"
     gridtolerance="10"
     guidetolerance="10"
     inkscape:pageopacity="0"
     inkscape:pageshadow="2"
     inkscape:window-width="1366"
     inkscape:window-height="705"
     id="namedview48"
     showgrid="false"
     fit-margin-top="0"
     fit-margin-left="0"
     fit-margin-right="0"
     fit-margin-bottom="0"
     inkscape:zoom="2.5371828"
     inkscape:cx="171.6617"
     inkscape:cy="106.35886"
     inkscape:window-x="-8"
     inkscape:window-y="-8"
     inkscape:window-maximized="1"
     inkscape:current-layer="svg2" /><defs
     id="defs4"><style
       type="text/css"
       id="style6"><![CDATA[
    .fil2 {fill:#1F1A17}
    .fil1 {fill:#DB2925}
    .fil0 {fill:white}
   ]]></style></defs><g
     id="Layer_x0020_1"
     transform="matrix(4.9927154,0,0,4.9927154,-28.754047,-1171.9201)"><metadata
       id="CorelCorpID_0Corel-Layer" /><path
       class="fil1"
       d="m 34.0225,234.726 c 15.6069,0 28.2635,12.6566 28.2635,28.2634 0,15.6068 -12.6566,28.2634 -28.2635,28.2634 -15.6067,0 -28.2633,-12.6566 -28.2633,-28.2634 0,-15.6068 12.6566,-28.2634 28.2633,-28.2634 z"
       id="path12"
       inkscape:connector-curvature="0"
       style="fill:#db2925" /><path
       class="fil0"
       d="m 57.6517,253.796 c -0.4867,2.1009 -2.3944,4.3418 -4.5747,4.662 -0.5451,0.1 -1.1291,0.1401 -1.7132,0.0801 0.4478,-0.6804 0.8371,-1.3607 1.3822,-1.9809 2.0246,0.08 3.543,-1.2205 4.8862,-2.7612 l 0.0195,0 z"
       id="path16"
       inkscape:connector-curvature="0"
       style="fill:#ffffff" /><path
       class="fil0"
       d="m 20.2362,254.556 c 0.331,0.7804 0.0389,1.6608 -0.5451,2.2409 -0.2141,0.2002 -0.545,0.3603 -0.8371,0.2201 -0.2531,-0.14 -0.4088,-0.4001 -0.3893,-0.7203 0.039,-0.4802 0.4088,-0.9203 0.8371,-1.1004 0.1168,-0.04 0.253,-0.0601 0.3893,-0.08 -0.0195,-0.1401 -0.1168,-0.2801 -0.2336,-0.3602 -0.2141,-0.12 -0.4671,-0.02 -0.6618,0.0801 -1.9467,1.1004 -3.3679,3.1813 -4.4191,5.0621 -0.9343,1.8208 -1.8104,3.7216 -1.6936,5.9825 0.0973,0.8604 0.4283,1.7808 1.2654,2.201 0.4866,0.2201 1.0122,0.3001 1.5573,0.3201 0.7009,0 1.3627,-0.1801 2.0051,-0.3402 2.8811,-0.8403 5.8012,-2.0208 9.0716,-1.4805 1.7715,0.3 3.4652,1.3005 4.4774,2.9812 -1.6741,-0.6002 -4.0102,-0.9604 -5.6648,-0.06 -0.6619,-1.0605 -1.7326,-1.7007 -2.9396,-1.6808 -1.4989,0.0601 -2.8811,0.4402 -4.2632,0.8204 -1.6548,0.4602 -3.3289,1.0204 -5.1783,0.7203 -1.3626,-0.2401 -2.4917,-1.6807 -2.7448,-3.0012 -0.292,-1.2806 -0.0389,-2.6612 0.3699,-3.8016 0.9734,-2.5811 2.4723,-5.0022 4.711,-6.9631 1.0707,-0.8603 2.1998,-1.5606 3.543,-1.6806 0.545,-0.02 1.0902,0.12 1.3432,0.6402 z"
       id="path18"
       inkscape:connector-curvature="0"
       style="fill:#ffffff" /><path
       class="fil0"
       d="m 34.233,259.378 c -0.1363,0.2402 -0.3699,0.2802 -0.6425,0.2602 l -1.2848,-0.02 0.7398,-1.5407 c 0.1362,-0.1801 0.3309,-0.2801 0.545,-0.2801 l 1.4406,0 -0.7981,1.5806 z"
       id="path20"
       inkscape:connector-curvature="0"
       style="fill:#ffffff" /><path
       class="fil0"
       d="m 6.8988,270.931 c 13.3556,2.6851 24.6703,2.3436 32.3142,-2.4213 l 1.0244,1.3969 c -8.7111,5.8745 -18.9159,8.2833 -30.3586,7.7013 -1.3546,-1.981 -2.3286,-4.2454 -2.98,-6.6769 z"
       id="path22"
       inkscape:connector-curvature="0"
       style="fill:#ffffff" /><path
       class="fil0"
       d="m 49.3636,261.805 c 3.8909,-2.8376 7.9021,-4.7728 12.0131,-5.96 0.3688,1.428 0.6587,2.8559 0.745,4.2838 -5.1144,-0.9115 -9.0159,0.3601 -12.4787,2.4212 l -0.2794,-0.745 z"
       id="path24"
       inkscape:connector-curvature="0"
       style="fill:#ffffff" /><path
       class="fil0"
       d="m 54.4591,254.276 c 0.1557,0.3801 -0.0194,0.7603 -0.2725,1.0605 -0.1168,0.06 -0.2141,0.2201 -0.3504,0.14 0.0194,-0.1601 0.1946,-0.2801 0.253,-0.4201 0.039,-0.1001 0.0584,-0.2201 0.0195,-0.3002 -0.0389,-0.08 -0.0974,-0.02 -0.1557,-0.02 -0.8565,0.6803 -1.5185,1.5807 -2.1609,2.441 -1.8298,2.6212 -3.3093,5.4023 -4.1464,8.4436 -0.1168,0.5002 -0.2726,1.0205 -0.2531,1.5807 0.039,0.1001 0.0584,0.2001 0.1752,0.2601 0.1947,0.04 0.331,-0.1201 0.4867,-0.2601 0.3699,-0.4202 0.6814,-0.8804 1.0122,-1.3406 l 1.3628,-2.1209 c 0.6035,-0.9204 1.4795,-1.9208 2.5307,-2.1409 0.4088,-0.06 0.7592,0.0801 1.0511,0.3401 l 0.2337,-0.32 1.7325,0.0199 -2.7059,5.4623 c 0,0.0401 -0.0389,0.1201 0,0.1801 0.0389,0.06 0.1168,0.06 0.1753,0.0201 0.4477,-0.2802 0.7397,-0.7604 1.0511,-1.1806 0.1947,-0.3 0.4283,-0.7003 0.4672,-0.9404 l 0.623,0 c -0.2336,1.0404 -0.876,1.9208 -1.5769,2.7612 -0.545,0.5602 -1.0901,1.0804 -1.7714,1.2605 -0.2336,0.04 -0.4866,0.02 -0.6619,-0.1201 -0.2336,-0.22 -0.3114,-0.5201 -0.3699,-0.8003 -0.5256,0.5003 -1.0512,0.9804 -1.791,0.9204 -0.3114,-0.04 -0.584,-0.3601 -0.6812,-0.6402 -0.0974,-0.2601 -0.1168,-0.5402 -0.1558,-0.8203 -0.2726,0.4801 -0.7398,0.9203 -1.1875,1.2604 -0.3114,0.2001 -0.8176,0.2802 -1.168,0.1001 -0.876,-0.4402 -0.7592,-1.5407 -0.7203,-2.421 0.0779,-0.5203 0.2142,-0.9804 0.331,-1.4806 -0.2531,0.0799 -0.5257,0.1 -0.8176,0.0799 -0.623,1.2206 -1.207,2.5011 -2.3361,3.4616 -0.5062,0.4402 -1.2459,0.6802 -1.9077,0.4201 -0.4478,-0.1401 -0.623,-0.6402 -0.6425,-1.1005 -0.0195,-1.3605 0.5062,-2.541 1.1291,-3.6415 0.7203,-1.1404 1.7715,-2.4811 3.0758,-2.8212 0.4672,-0.08 0.8955,0.0801 1.1486,0.4802 0.3893,0.7604 0.0973,1.7207 -0.1168,2.481 0.0973,0.0401 0.2141,0 0.3114,0 0.1362,-0.04 0.253,-0.08 0.3699,-0.16 1.1097,-3.5415 3.1341,-6.7229 5.879,-9.564 0.5256,-0.4603 1.0902,-0.8204 1.752,-0.9404 0.3309,0 0.6425,0.08 0.7787,0.3801 z"
       id="path28"
       inkscape:connector-curvature="0"
       style="fill:#ffffff" /><path
       class="fil1"
       d="m 44.9787,262.74 c 0.1168,0.5202 -0.0973,1.0004 -0.2531,1.4606 -0.0195,0.04 -0.0389,0.0801 -0.0778,0.1201 -0.331,-0.0201 -0.6229,-0.2201 -0.8176,-0.5203 -0.1363,-0.2601 -0.039,-0.6002 0.1168,-0.8203 0.1947,-0.2801 0.4672,-0.5002 0.7981,-0.4201 0.0973,0.0199 0.1947,0.1 0.2336,0.18 z"
       id="path30"
       inkscape:connector-curvature="0"
       style="fill:#db2925" /><path
       class="fil1"
       d="m 53.5441,262.6 c 0.1753,0.1801 0.039,0.4603 -0.0583,0.7003 l -1.1681,2.341 c -0.4282,0.6803 -0.7008,1.4806 -1.4015,1.9809 -0.0585,0.04 -0.1753,0.06 -0.2531,0 -0.1558,-0.1201 -0.1364,-0.3602 -0.0973,-0.5603 0.2919,-1.4406 1.0511,-2.6811 1.9661,-3.8416 0.2336,-0.2801 0.5061,-0.5602 0.8176,-0.6803 0.0778,0 0.1363,0 0.1946,0.06 z"
       id="path32"
       inkscape:connector-curvature="0"
       style="fill:#db2925" /><path
       class="fil1"
       d="m 44.3168,265.061 c -0.2919,0.7804 -0.7397,1.5007 -1.3237,2.161 -0.2531,0.2201 -0.5256,0.5002 -0.876,0.3602 -0.2531,-0.2002 -0.1753,-0.6203 -0.1168,-0.9205 0.2141,-0.9003 0.6034,-1.7407 1.168,-2.501 0.292,0.4402 0.7398,0.6802 1.1485,0.9003 z"
       id="path34"
       inkscape:connector-curvature="0"
       style="fill:#db2925" /><path
       class="fil0"
       d="m 20.1388,258.218 c 0.4673,0.7003 0.3116,1.7608 0.039,2.481 1.0901,0.2201 1.6158,-1.0004 2.336,-1.6407 0.7204,-0.7203 1.4601,-1.4406 2.5113,-1.3405 0.3309,0.06 0.6619,0.3001 0.7981,0.6402 0.2725,0.7404 -0.0389,1.5407 -0.545,2.0809 -0.1753,0.1801 -0.4283,0.2801 -0.6814,0.1601 -0.1557,-0.0601 -0.292,-0.2201 -0.3115,-0.4001 -0.0389,-0.3803 0.0779,-0.7203 0.3504,-0.9605 0.1753,-0.14 0.4089,-0.2201 0.6619,-0.2 0.0195,-0.1402 -0.0973,-0.2602 -0.2141,-0.3402 -0.331,-0.1 -0.5646,0.2 -0.7982,0.4201 -0.9149,1.0806 -1.5573,2.261 -2.044,3.5416 -0.1168,0.4602 -0.2726,1.1205 0.0778,1.5206 0.3504,0.2201 0.7203,-0.02 1.0123,-0.18 1.3043,-0.8605 2.044,-2.3011 2.8811,-3.5216 0.8761,-1.1405 1.8884,-2.9812 3.5625,-2.7011 0.1946,0.06 0.3699,0.18 0.5062,0.3601 l 0.1751,-0.3401 1.791,0 -2.7643,5.7424 c -0.0195,0.0601 -0.0389,0.1401 0,0.1802 0.1168,0.0999 0.2336,-0.0201 0.3309,-0.0801 0.6424,-0.6003 1.0707,-1.3005 1.3822,-2.0409 l 0.7787,0 c -0.4867,1.2605 -1.3043,2.421 -2.4139,3.3614 -0.4672,0.4002 -1.0318,0.7203 -1.6937,0.5603 -0.1947,-0.0801 -0.3698,-0.3002 -0.4087,-0.5003 -0.0196,-0.12 -0.039,-0.2401 -0.039,-0.36 -0.4867,0.6201 -1.1291,0.9803 -1.8882,0.9003 -0.331,-0.0601 -0.6814,-0.3202 -0.7982,-0.6603 -0.1557,-0.3402 -0.0974,-0.8003 -0.0389,-1.1804 l -0.0195,0 c -0.8761,0.8803 -1.791,1.6806 -2.959,1.8207 -0.5646,0.02 -1.0707,-0.1801 -1.3821,-0.6803 -0.4673,-0.8003 -0.1753,-1.9008 0.1362,-2.6612 l 0.2531,-0.6402 c -0.292,0.02 -0.6035,0 -0.876,-0.0801 -0.5257,1.1005 -1.1097,2.181 -2.0052,3.1014 -0.6034,0.7203 -1.46,1.2205 -2.3554,0.8603 -0.6425,-0.3201 -0.7398,-1.0604 -0.6814,-1.7407 0.2142,-1.7407 1.0707,-3.2014 2.1608,-4.5619 0.6425,-0.7203 1.3238,-1.3606 2.2387,-1.4407 0.3699,0 0.7009,0.1802 0.9344,0.5203 z"
       id="path36"
       inkscape:connector-curvature="0"
       style="fill:#ffffff" /><path
       class="fil1"
       d="m 19.7495,258.998 c 0.1168,0.3401 0,0.7003 -0.0584,1.0004 -0.0778,0.2002 -0.1363,0.4203 -0.2336,0.6003 -0.3504,0.02 -0.6424,-0.2201 -0.837,-0.5003 -0.1558,-0.24 -0.039,-0.5601 0.0778,-0.8003 0.1947,-0.2801 0.4866,-0.5402 0.8371,-0.4401 0.0779,0.02 0.1557,0.06 0.2141,0.14 z"
       id="path38"
       inkscape:connector-curvature="0"
       style="fill:#db2925" /><path
       class="fil1"
       d="m 19.0876,261.339 c -0.2336,0.7403 -0.6618,1.3806 -1.168,2.0208 -0.253,0.2802 -0.5256,0.5603 -0.9149,0.5402 -0.0779,-0.0199 -0.1752,-0.08 -0.2142,-0.16 -0.1363,-0.3201 -0.0194,-0.7203 0.0585,-1.0404 0.2141,-0.8204 0.584,-1.5607 1.1096,-2.2409 0.2919,0.4201 0.7202,0.6802 1.129,0.8803 z"
       id="path40"
       inkscape:connector-curvature="0"
       style="fill:#db2925" /><path
       class="fil1"
       d="m 29.775,258.778 c 0.1168,0.2201 0.0584,0.4602 -0.0584,0.7004 -0.6424,1.2804 -1.2264,2.581 -2.0245,3.8016 -0.2142,0.24 -0.4672,0.6602 -0.8176,0.5201 -0.1558,-0.2 -0.0974,-0.5002 -0.0585,-0.7203 0.331,-1.3405 1.0512,-2.521 1.9078,-3.6415 0.253,-0.2802 0.5256,-0.6003 0.8565,-0.7204 0.0779,0 0.1557,0 0.1947,0.0601 z"
       id="path42"
       inkscape:connector-curvature="0"
       style="fill:#db2925" /><path
       class="fil0"
       d="m 50.5267,255.777 c -0.4866,0.5802 -0.9733,1.1404 -1.3626,1.7407 -1.5574,-0.5603 -2.5891,-2.501 -4.38,-2.501 -0.2921,0 -0.5841,0.0199 -0.8566,0.06 0.0778,1.9208 -0.5646,3.6014 -1.9661,4.882 -0.4478,0.3601 -0.9929,0.6804 -1.5769,0.4402 -0.5256,-0.2601 -0.6034,-0.8603 -0.5451,-1.4206 0.2725,-1.6407 1.3821,-3.0613 2.7449,-4.0817 -0.3699,-0.1 -0.6814,0.1201 -0.9928,0.2801 -2.4724,1.7207 -4.1271,4.3619 -5.4118,6.8629 -0.6035,1.3006 -1.1681,2.6212 -1.2849,4.1217 -0.0194,0.6803 0.0389,1.3406 0.5646,1.7607 0.4866,0.3602 1.1875,0.1801 1.6546,-0.1 1.4796,-1.0804 2.3556,-2.6811 2.6281,-4.3818 0.039,-0.3002 0.039,-0.6403 -0.1946,-0.8203 -0.3699,-0.1001 -0.6814,0.2 -0.9345,0.4601 -0.4088,0.5803 -0.5451,1.2806 -0.6229,1.9808 -0.7982,0.3203 -1.5574,1.0205 -2.0635,1.7808 -0.1947,-1.2805 0.2141,-2.441 0.7786,-3.4614 0.5841,-0.9204 1.5185,-2.0009 2.7059,-1.8008 0.37,0.08 0.7398,0.3401 0.8761,0.7003 0.3114,0.8003 0,1.7007 -0.1753,2.461 -0.4476,1.6007 -1.5768,3.0813 -2.9979,4.1018 -0.8565,0.5603 -2.1413,0.7403 -3.0952,0.2801 -1.2264,-0.6203 -1.4795,-2.0009 -1.3822,-3.3214 0.2726,-2.6411 1.4406,-4.9221 2.9201,-7.063 1.5184,-2.1209 3.5819,-4.0418 5.8985,-4.742 0.7202,-0.1801 1.5963,-0.2201 2.1219,0.3801 1.3237,-0.5802 3.2315,-0.8203 4.5747,-0.1 0.8371,0.3801 1.5574,1.0404 2.3749,1.5007 z"
       id="path44"
       inkscape:connector-curvature="0"
       style="fill:#ffffff" /><path
       class="fil1"
       d="m 43.2072,255.457 c 0.0584,0.9804 -0.2336,1.8607 -0.6423,2.681 -0.331,0.6003 -0.7982,1.2405 -1.4212,1.6208 -0.0973,0.04 -0.1947,0.1199 -0.3309,0.0799 -0.3699,-0.0799 -0.2531,-0.9004 -0.1363,-1.2805 0.2725,-0.8003 0.7787,-1.4806 1.3238,-2.1608 0.3504,-0.4203 0.7591,-0.7404 1.2069,-0.9404 z"
       id="path46"
       inkscape:connector-curvature="0"
       style="fill:#db2925" /></g></svg>